# Blender v2.78 (sub 0) OBJ File: ''
# www.blender.org
mtllib round_quad.mtl
o Cube
v 0.849175 0.000000 0.000000
v 0.834635 0.000000 -0.172309
v 0.791151 -0.000000 -0.337483
v 0.718859 0.000000 -0.488390
v 0.834635 0.172309 0.000000
v 0.791151 0.337484 0.000000
v 0.718858 0.488390 0.000000
v 0.834635 0.000000 0.172309
v 0.791151 0.000000 0.337484
v 0.718858 0.000000 0.488390
v 0.834635 -0.172309 0.000000
v 0.791151 -0.337484 0.000000
v 0.718858 -0.488390 0.000000
v 0.820313 -0.169271 -0.169271
v 0.777507 -0.163194 -0.331543
v 0.706380 -0.157118 -0.479818
v 0.777507 -0.331543 -0.163194
v 0.737422 -0.318952 -0.318951
v 0.671749 -0.304941 -0.459834
v 0.706380 -0.479818 -0.157118
v 0.671749 -0.459834 -0.304941
v 0.617766 -0.434172 -0.434172
v 0.820312 0.169271 -0.169271
v 0.777506 0.331543 -0.163194
v 0.706380 0.479818 -0.157118
v 0.777507 0.163194 -0.331543
v 0.737422 0.318952 -0.318951
v 0.671748 0.459834 -0.304940
v 0.706380 0.157118 -0.479817
v 0.671749 0.304941 -0.459834
v 0.617766 0.434172 -0.434172
v 0.820312 0.169271 0.169271
v 0.777506 0.163194 0.331543
v 0.706380 0.157118 0.479818
v 0.777506 0.331543 0.163195
v 0.737422 0.318952 0.318952
v 0.671748 0.304941 0.459835
v 0.706380 0.479818 0.157118
v 0.671748 0.459834 0.304941
v 0.617766 0.434172 0.434173
v 0.820312 -0.169271 0.169271
v 0.777506 -0.331543 0.163195
v 0.706380 -0.479818 0.157118
v 0.777506 -0.163194 0.331543
v 0.737422 -0.318952 0.318952
v 0.671748 -0.459834 0.304941
v 0.706380 -0.157118 0.479818
v 0.671748 -0.304941 0.459835
v 0.617766 -0.434172 0.434173
v 0.540039 -0.540039 -0.419922
v 0.579536 -0.579536 -0.297580
v 0.607096 -0.607096 -0.154080
v 0.617893 -0.617893 0.000000
v 0.607096 -0.607096 0.154080
v 0.579535 -0.579536 0.297580
v 0.540039 -0.540039 0.419922
v 0.540039 -0.419922 -0.540039
v 0.579536 -0.297580 -0.579535
v 0.607096 -0.154080 -0.607096
v 0.617893 0.000000 -0.617893
v 0.607096 0.154080 -0.607096
v 0.579536 0.297580 -0.579535
v 0.540039 0.419922 -0.540039
v 0.540039 -0.419922 0.540039
v 0.579535 -0.297580 0.579536
v 0.607096 -0.154080 0.607096
v 0.617893 0.000000 0.617893
v 0.607096 0.154080 0.607097
v 0.579535 0.297580 0.579536
v 0.540039 0.419922 0.540039
v 0.540039 0.540039 -0.419922
v 0.579536 0.579536 -0.297580
v 0.607096 0.607096 -0.154080
v 0.617893 0.617893 0.000000
v 0.607096 0.607096 0.154080
v 0.579535 0.579536 0.297581
v 0.540039 0.540039 0.419922
v 0.501543 -0.501543 -0.501543
v 0.501543 -0.501543 0.501543
v 0.501543 0.501543 -0.501543
v 0.501543 0.501543 0.501543
vt 0.5000 0.5000
vt 0.3750 0.6250
vt 0.5000 0.6250
vt 0.3750 0.5000
vt 0.2500 0.6250
vt 0.2500 0.5000
vt 0.1250 0.6250
vt 0.1250 0.5000
vt 0.0000 0.6250
vt 0.3750 0.7500
vt 0.5000 0.7500
vt 0.2500 0.7500
vt 0.1250 0.7500
vt 0.0000 0.7500
vt 0.3750 0.8750
vt 0.5000 0.8750
vt 0.2500 0.8750
vt 0.1250 0.8750
vt 0.0000 0.8750
vt 0.3750 1.0000
vt 0.5000 1.0000
vt 0.2500 1.0000
vt 0.1250 1.0000
vt 0.0000 1.0000
vt 0.3750 0.3750
vt 0.5000 0.3750
vt 0.3750 0.2500
vt 0.5000 0.2500
vt 0.3750 0.1250
vt 0.5000 0.1250
vt 0.3750 0.0000
vt 0.2500 0.3750
vt 0.2500 0.2500
vt 0.2500 0.1250
vt 0.2500 0.0000
vt 0.1250 0.3750
vt 0.1250 0.2500
vt 0.1250 0.1250
vt 0.1250 0.0000
vt 0.0000 0.3750
vt 0.0000 0.5000
vt 0.0000 0.2500
vt 0.0000 0.1250
vt 0.0000 0.0000
vt 0.6250 0.3750
vt 0.6250 0.5000
vt 0.7500 0.3750
vt 0.7500 0.5000
vt 0.8750 0.3750
vt 0.8750 0.5000
vt 1.0000 0.3750
vt 0.6250 0.2500
vt 0.7500 0.2500
vt 0.8750 0.2500
vt 1.0000 0.2500
vt 0.6250 0.1250
vt 0.7500 0.1250
vt 0.8750 0.1250
vt 1.0000 0.1250
vt 0.6250 0.0000
vt 0.5000 0.0000
vt 0.7500 0.0000
vt 0.8750 0.0000
vt 1.0000 0.0000
vt 0.6250 0.6250
vt 0.6250 0.7500
vt 0.6250 0.8750
vt 0.6250 1.0000
vt 0.7500 0.6250
vt 0.7500 0.7500
vt 0.7500 0.8750
vt 0.7500 1.0000
vt 0.8750 0.6250
vt 0.8750 0.7500
vt 0.8750 0.8750
vt 0.8750 1.0000
vt 1.0000 0.6250
vt 1.0000 0.5000
vt 1.0000 0.7500
vt 1.0000 0.8750
vt 1.0000 1.0000
vn -0.9928 0.0838 0.0855
vn -0.9625 0.0861 0.2571
vn -0.8965 0.0907 0.4337
vn -0.7838 0.0957 0.6137
vn -0.9631 0.2536 0.0898
vn -0.9311 0.2554 0.2603
vn -0.8657 0.2575 0.4292
vn -0.7575 0.2585 0.5995
vn -0.8978 0.4301 0.0948
vn -0.8663 0.4262 0.2606
vn -0.8060 0.4175 0.4196
vn -0.7080 0.4099 0.5750
vn -0.7849 0.6119 0.0979
vn -0.7583 0.5977 0.2604
vn -0.7089 0.5715 0.4134
vn -0.6339 0.5400 0.5537
vn -0.9928 -0.0855 0.0838
vn -0.9625 -0.2571 0.0861
vn -0.8965 -0.4337 0.0907
vn -0.7838 -0.6137 0.0957
vn -0.9631 -0.0898 0.2536
vn -0.9311 -0.2603 0.2554
vn -0.8657 -0.4292 0.2575
vn -0.7575 -0.5995 0.2585
vn -0.8978 -0.0948 0.4301
vn -0.8663 -0.2606 0.4262
vn -0.8060 -0.4196 0.4175
vn -0.7080 -0.5750 0.4099
vn -0.7849 -0.0979 0.6119
vn -0.7583 -0.2604 0.5977
vn -0.7089 -0.4134 0.5715
vn -0.6339 -0.5537 0.5400
vn -0.9928 -0.0838 -0.0855
vn -0.9625 -0.0861 -0.2571
vn -0.8965 -0.0907 -0.4337
vn -0.7838 -0.0957 -0.6137
vn -0.9631 -0.2536 -0.0898
vn -0.9311 -0.2554 -0.2603
vn -0.8657 -0.2575 -0.4292
vn -0.7575 -0.2585 -0.5995
vn -0.8978 -0.4301 -0.0948
vn -0.8663 -0.4262 -0.2606
vn -0.8060 -0.4175 -0.4196
vn -0.7080 -0.4099 -0.5750
vn -0.7849 -0.6119 -0.0979
vn -0.7583 -0.5977 -0.2604
vn -0.7089 -0.5715 -0.4134
vn -0.6339 -0.5400 -0.5537
vn -0.9928 0.0855 -0.0838
vn -0.9625 0.2571 -0.0861
vn -0.8965 0.4337 -0.0907
vn -0.7838 0.6137 -0.0957
vn -0.9631 0.0898 -0.2536
vn -0.9311 0.2603 -0.2554
vn -0.8657 0.4292 -0.2575
vn -0.7575 0.5995 -0.2585
vn -0.8978 0.0948 -0.4301
vn -0.8663 0.2606 -0.4262
vn -0.8060 0.4196 -0.4175
vn -0.7080 0.5750 -0.4099
vn -0.7849 0.0979 -0.6119
vn -0.7583 0.2604 -0.5977
vn -0.7089 0.4134 -0.5715
vn -0.6339 0.5537 -0.5400
vn -0.9928 0.0855 0.0838
vn -0.9631 0.0898 0.2536
vn -0.8978 0.0948 0.4301
vn -0.7849 0.0979 0.6119
vn -0.9625 0.2571 0.0861
vn -0.9311 0.2603 0.2554
vn -0.8663 0.2606 0.4262
vn -0.7583 0.2604 0.5977
vn -0.8965 0.4337 0.0907
vn -0.8657 0.4292 0.2575
vn -0.8060 0.4196 0.4175
vn -0.7089 0.4134 0.5715
vn -0.7838 0.6137 0.0957
vn -0.7575 0.5995 0.2585
vn -0.7080 0.5750 0.4099
vn -0.6339 0.5537 0.5400
vn -0.9928 -0.0838 0.0855
vn -0.9631 -0.2536 0.0898
vn -0.8978 -0.4301 0.0948
vn -0.7849 -0.6119 0.0979
vn -0.9625 -0.0861 0.2571
vn -0.9311 -0.2554 0.2603
vn -0.8663 -0.4262 0.2606
vn -0.7583 -0.5977 0.2604
vn -0.8965 -0.0907 0.4337
vn -0.8657 -0.2575 0.4292
vn -0.8060 -0.4175 0.4196
vn -0.7089 -0.5715 0.4134
vn -0.7838 -0.0957 0.6137
vn -0.7575 -0.2585 0.5995
vn -0.7080 -0.4099 0.5750
vn -0.6339 -0.5400 0.5537
vn -0.9928 -0.0855 -0.0838
vn -0.9631 -0.0898 -0.2536
vn -0.8978 -0.0948 -0.4301
vn -0.7849 -0.0979 -0.6119
vn -0.9625 -0.2571 -0.0861
vn -0.9311 -0.2603 -0.2554
vn -0.8663 -0.2606 -0.4262
vn -0.7583 -0.2604 -0.5977
vn -0.8965 -0.4337 -0.0907
vn -0.8657 -0.4292 -0.2575
vn -0.8060 -0.4196 -0.4175
vn -0.7089 -0.4134 -0.5715
vn -0.7838 -0.6137 -0.0957
vn -0.7575 -0.5995 -0.2585
vn -0.7080 -0.5750 -0.4099
vn -0.6339 -0.5537 -0.5400
vn -0.9928 0.0838 -0.0855
vn -0.9631 0.2536 -0.0898
vn -0.8978 0.4301 -0.0948
vn -0.7849 0.6119 -0.0979
vn -0.9625 0.0861 -0.2571
vn -0.9311 0.2554 -0.2603
vn -0.8663 0.4262 -0.2606
vn -0.7583 0.5977 -0.2604
vn -0.8965 0.0907 -0.4337
vn -0.8657 0.2575 -0.4292
vn -0.8060 0.4175 -0.4196
vn -0.7089 0.5715 -0.4134
vn -0.7838 0.0957 -0.6137
vn -0.7575 0.2585 -0.5995
vn -0.7080 0.4099 -0.5750
vn -0.6339 0.5400 -0.5537
usemtl Material
s off
f 1/1/1 14/2/1 11/3/1
f 2/4/2 15/5/2 14/2/2
f 3/6/3 16/7/3 15/5/3
f 4/8/4 59/9/4 16/7/4
f 11/3/5 17/10/5 12/11/5
f 14/2/6 18/12/6 17/10/6
f 15/5/7 19/13/7 18/12/7
f 16/7/8 58/14/8 19/13/8
f 12/11/9 20/15/9 13/16/9
f 17/10/10 21/17/10 20/15/10
f 18/12/11 22/18/11 21/17/11
f 19/13/12 57/19/12 22/18/12
f 13/16/13 52/20/13 53/21/13
f 20/15/14 51/22/14 52/20/14
f 21/17/15 50/23/15 51/22/15
f 22/18/16 78/24/16 50/23/16
f 1/1/17 23/25/17 2/4/17
f 5/26/18 24/27/18 23/25/18
f 6/28/19 25/29/19 24/27/19
f 7/30/20 73/31/20 25/29/20
f 2/4/21 26/32/21 3/6/21
f 23/25/22 27/33/22 26/32/22
f 24/27/23 28/34/23 27/33/23
f 25/29/24 72/35/24 28/34/24
f 3/6/25 29/36/25 4/8/25
f 26/32/26 30/37/26 29/36/26
f 27/33/27 31/38/27 30/37/27
f 28/34/28 71/39/28 31/38/28
f 4/8/29 61/40/29 60/41/29
f 29/36/30 62/42/30 61/40/30
f 30/37/31 63/43/31 62/42/31
f 31/38/32 80/44/32 63/43/32
f 1/1/33 32/45/33 5/26/33
f 8/46/34 33/47/34 32/45/34
f 9/48/35 34/49/35 33/47/35
f 10/50/36 68/51/36 34/49/36
f 5/26/37 35/52/37 6/28/37
f 32/45/38 36/53/38 35/52/38
f 33/47/39 37/54/39 36/53/39
f 34/49/40 69/55/40 37/54/40
f 6/28/41 38/56/41 7/30/41
f 35/52/42 39/57/42 38/56/42
f 36/53/43 40/58/43 39/57/43
f 37/54/44 70/59/44 40/58/44
f 7/30/45 75/60/45 74/61/45
f 38/56/46 76/62/46 75/60/46
f 39/57/47 77/63/47 76/62/47
f 40/58/48 81/64/48 77/63/48
f 1/1/49 41/65/49 8/46/49
f 11/3/50 42/66/50 41/65/50
f 12/11/51 43/67/51 42/66/51
f 13/16/52 54/68/52 43/67/52
f 8/46/53 44/69/53 9/48/53
f 41/65/54 45/70/54 44/69/54
f 42/66/55 46/71/55 45/70/55
f 43/67/56 55/72/56 46/71/56
f 9/48/57 47/73/57 10/50/57
f 44/69/58 48/74/58 47/73/58
f 45/70/59 49/75/59 48/74/59
f 46/71/60 56/76/60 49/75/60
f 10/50/61 66/77/61 67/78/61
f 47/73/62 65/79/62 66/77/62
f 48/74/63 64/80/63 65/79/63
f 49/75/64 79/81/64 64/80/64
f 1/1/65 2/4/65 14/2/65
f 2/4/66 3/6/66 15/5/66
f 3/6/67 4/8/67 16/7/67
f 4/8/68 60/41/68 59/9/68
f 11/3/69 14/2/69 17/10/69
f 14/2/70 15/5/70 18/12/70
f 15/5/71 16/7/71 19/13/71
f 16/7/72 59/9/72 58/14/72
f 12/11/73 17/10/73 20/15/73
f 17/10/74 18/12/74 21/17/74
f 18/12/75 19/13/75 22/18/75
f 19/13/76 58/14/76 57/19/76
f 13/16/77 20/15/77 52/20/77
f 20/15/78 21/17/78 51/22/78
f 21/17/79 22/18/79 50/23/79
f 22/18/80 57/19/80 78/24/80
f 1/1/81 5/26/81 23/25/81
f 5/26/82 6/28/82 24/27/82
f 6/28/83 7/30/83 25/29/83
f 7/30/84 74/61/84 73/31/84
f 2/4/85 23/25/85 26/32/85
f 23/25/86 24/27/86 27/33/86
f 24/27/87 25/29/87 28/34/87
f 25/29/88 73/31/88 72/35/88
f 3/6/89 26/32/89 29/36/89
f 26/32/90 27/33/90 30/37/90
f 27/33/91 28/34/91 31/38/91
f 28/34/92 72/35/92 71/39/92
f 4/8/93 29/36/93 61/40/93
f 29/36/94 30/37/94 62/42/94
f 30/37/95 31/38/95 63/43/95
f 31/38/96 71/39/96 80/44/96
f 1/1/97 8/46/97 32/45/97
f 8/46/98 9/48/98 33/47/98
f 9/48/99 10/50/99 34/49/99
f 10/50/100 67/78/100 68/51/100
f 5/26/101 32/45/101 35/52/101
f 32/45/102 33/47/102 36/53/102
f 33/47/103 34/49/103 37/54/103
f 34/49/104 68/51/104 69/55/104
f 6/28/105 35/52/105 38/56/105
f 35/52/106 36/53/106 39/57/106
f 36/53/107 37/54/107 40/58/107
f 37/54/108 69/55/108 70/59/108
f 7/30/109 38/56/109 75/60/109
f 38/56/110 39/57/110 76/62/110
f 39/57/111 40/58/111 77/63/111
f 40/58/112 70/59/112 81/64/112
f 1/1/113 11/3/113 41/65/113
f 11/3/114 12/11/114 42/66/114
f 12/11/115 13/16/115 43/67/115
f 13/16/116 53/21/116 54/68/116
f 8/46/117 41/65/117 44/69/117
f 41/65/118 42/66/118 45/70/118
f 42/66/119 43/67/119 46/71/119
f 43/67/120 54/68/120 55/72/120
f 9/48/121 44/69/121 47/73/121
f 44/69/122 45/70/122 48/74/122
f 45/70/123 46/71/123 49/75/123
f 46/71/124 55/72/124 56/76/124
f 10/50/125 47/73/125 66/77/125
f 47/73/126 48/74/126 65/79/126
f 48/74/127 49/75/127 64/80/127
f 49/75/128 56/76/128 79/81/128
